<svg width="142" height="77" viewBox="0 0 142 77" fill="none" xmlns="http://www.w3.org/2000/svg">
<path d="M6.94396 25.4333C5.53956 25.2778 4.21319 24.7333 2.96484 23.9556C1.71648 23.1778 0.702198 21.9333 0 20.2222C0.078022 20.3778 0.546154 20.6889 1.4044 21.0778C2.26264 21.5445 3.27692 21.7778 4.52527 21.9333C4.99341 22.0111 6.31978 22.0889 8.58242 22.1667C10.8451 22.2445 12.5615 22.5556 13.6538 23.1C14.7462 23.6445 15.7604 24.9667 16.6187 27.1445C15.8385 26.4445 13.6538 25.9 10.2209 25.5889H9.75275C9.67473 26.2111 9.5967 26.9111 9.5967 27.7667C9.5967 29.4778 9.83077 31.5778 10.2209 34.2222C10.2989 34.7667 10.2989 35.2333 10.2989 35.7C10.2989 38.9667 8.34835 41.3778 4.52527 43.0889C4.83736 43.0111 5.22747 42.7 5.53956 42.3111C5.77363 42 6.00769 41.5333 6.16374 40.9889C6.24176 40.1333 6.24176 39.2 6.24176 38.3444C6.24176 37.4111 6.16374 36.4778 6.08571 35.5445C5.85165 33.7556 5.6956 32.1222 5.53956 30.6445C5.53956 30.4889 5.53956 30.2556 5.53956 30.1C5.53956 28.7 6.00769 27.1445 6.94396 25.4333Z" fill="white"/>
<path d="M22.6263 27.6111C23.5626 28 24.2648 28.5445 24.7329 29.2445L22.3143 31.1111C22.3143 30.6445 22.0022 30.2556 21.378 29.9445L19.8176 31.1111V37.8778C19.8176 38.1889 19.8956 38.5 19.9736 38.8111C20.0516 39.0445 20.2077 39.2778 20.3637 39.4334C20.5978 39.6667 20.7538 39.8222 20.9879 39.9778L18.5692 41.7667L18.4912 41.6889L18.4132 41.6111C18.3351 41.5334 18.2571 41.4556 18.1011 41.3778C18.0231 41.3 17.867 41.2222 17.789 41.0667C17.5549 40.8334 17.3209 40.5222 17.1648 40.2889C17.0088 39.9 16.8527 39.5111 16.8527 39.1222V31.5C16.8527 30.8778 16.6187 30.3334 16.2285 29.8667C15.9945 29.6334 15.8384 29.4778 15.6044 29.3222L18.0231 27.5334H18.1011H18.1791L18.2571 27.6111C18.3351 27.6889 18.4132 27.6889 18.4912 27.7667C18.5692 27.8445 18.6472 27.9222 18.8033 28C19.0373 28.2334 19.1934 28.3889 19.3494 28.6222C19.5835 28.9334 19.6615 29.2445 19.7395 29.5556L22.6263 27.6111Z" fill="white"/>
<path d="M33.3934 38.1889C33.3934 38.4222 33.4714 38.7334 33.6275 38.9667C33.7055 39.2 33.8615 39.3556 34.0176 39.5111C34.2517 39.7445 34.4077 39.9 34.6418 39.9778L32.2231 41.7667C31.833 41.5334 31.4429 41.2222 31.2088 40.7556C30.9747 40.4445 30.8187 39.9778 30.6626 39.5111L27.6198 41.7667C26.1374 41.2222 25.2791 40.2111 25.0451 38.8889C24.967 38.6556 24.967 38.4222 24.967 38.1111V32.5111C24.967 31.9667 25.2791 31.3445 25.9033 30.6445C26.3714 30.1 27.0736 29.5556 27.9319 29.0889C28.9462 28.4667 29.8824 27.9222 30.8967 27.5334C31.833 27.9222 32.5352 28.4667 33.0033 29.1667C33.3154 29.7111 33.5495 30.4111 33.5495 31.1111V38.1889H33.3934ZM30.4286 31.1111C30.4286 30.6445 30.1165 30.2556 29.4923 29.8667C28.478 30.6445 27.9319 31.5 27.9319 32.3556V38.1889C27.9319 38.6556 28.244 39.0445 28.8681 39.4334L30.4286 38.2667V31.1111Z" fill="white"/>
<path d="M43.6143 41.7667C43.2242 41.5333 42.9121 41.2222 42.6 40.8333C42.2879 40.4445 42.1319 40.0556 41.9759 39.5889L39.011 41.7667C37.5286 41.2222 36.6704 40.2111 36.4363 38.8889C36.3583 38.6556 36.3583 38.4222 36.3583 38.1111V32.5111C36.3583 31.9667 36.6704 31.3445 37.2945 30.6445C37.7627 30.1 38.4649 29.5556 39.3231 29.0889C40.1814 28.5445 41.0396 28.0778 41.8978 27.6889V25.7445C41.8978 25.4333 41.8198 25.0445 41.7418 24.8111C41.6638 24.5778 41.5077 24.3445 41.3517 24.1889C41.1176 23.9556 40.9616 23.8 40.7275 23.7222L43.1462 21.9333L43.2242 22.0111L43.3022 22.0889C43.3803 22.1667 43.4583 22.2445 43.6143 22.3222C43.6923 22.4 43.8484 22.4778 43.9264 22.5556C44.1605 22.7889 44.3945 23.1 44.5506 23.3333C44.7066 23.7222 44.8627 24.1111 44.8627 24.5V37.9556C44.8627 38.5778 45.0187 39.1222 45.4088 39.5111C45.5649 39.6667 45.7989 39.8222 46.033 39.9778L43.6143 41.7667ZM41.8978 31.1111C41.8978 30.6445 41.5858 30.2556 40.9616 29.8667C39.9473 30.6445 39.4011 31.5 39.4011 32.3556V38.1889C39.4011 38.6556 39.7132 39.0445 40.3374 39.4333L41.8978 38.2667V31.1111Z" fill="white"/>
<path d="M51.1824 37.8778C51.1824 38.5 51.4165 39.0445 51.8066 39.5111C52.0407 39.7445 52.1967 39.9 52.4308 40.0556L49.9341 41.7667L49.8561 41.6889L49.778 41.6111C49.7 41.5333 49.622 41.4556 49.4659 41.3778C49.3879 41.3 49.2319 41.2222 49.1539 41.0667C48.9198 40.8333 48.6857 40.5222 48.5297 40.2889C48.3736 39.9 48.2176 39.5111 48.2176 39.1222V31.5C48.2176 30.8778 47.9835 30.3333 47.5934 29.8667C47.3593 29.6333 47.2033 29.4778 46.9692 29.3222L49.3879 27.5333L49.4659 27.6111L49.544 27.6889C49.622 27.7667 49.7 27.8445 49.8561 27.9222C49.9341 28 50.0901 28.0778 50.1681 28.1556C50.4022 28.3889 50.6363 28.7 50.7923 28.9333C50.9484 29.3222 51.1044 29.7111 51.1044 30.1V37.8778H51.1824ZM49.544 23.7222C49.622 23.8778 49.7 24.0333 49.8561 24.1111C50.0121 24.2667 50.1681 24.4222 50.4022 24.5778C50.7143 24.8111 51.1044 24.8889 51.5725 24.8889C51.8066 24.8889 52.0407 24.8889 52.2747 24.8111C51.8846 25.5111 51.4165 26.1333 50.8703 26.5222C50.4022 26.8333 50.0121 26.9889 49.544 26.9889C48.7637 26.9889 47.9835 26.5222 47.2033 25.5889L49.544 23.7222Z" fill="white"/>
<path d="M57.4242 41.4556C57.0341 41.3 56.722 41.1444 56.3319 40.9111C55.0836 40.0556 54.3033 38.6556 53.9912 36.6333C53.9132 36.0111 53.8352 35.4667 53.8352 34.8444C53.8352 34.1444 53.9132 33.3667 54.0693 32.5889C54.3033 31.3444 54.7715 30.3333 55.3956 29.4778C56.2539 28.4667 57.3462 27.6889 58.7506 27.3778L60.7792 30.1778L58.6726 31.8111L57.1121 29.5556C56.644 30.4111 56.4099 31.5 56.4099 32.8222C56.4099 33.6 56.4879 34.5333 56.644 35.4667C56.722 36.2444 57.0341 36.9444 57.5803 37.6444C58.3605 38.7333 59.5308 39.2778 61.0912 39.2778C61.4814 39.2778 61.8715 39.2778 62.2616 39.2L59.0627 41.6111L58.4385 43.1667C58.6726 43.4 59.0627 43.7111 59.6088 44.1778C59.9209 44.4111 60.077 44.7222 60.233 44.9556C60.311 45.1111 60.389 45.2667 60.389 45.5V45.5778C60.389 45.8111 60.311 45.9667 60.233 46.2C60.155 46.4333 59.9989 46.5111 59.7649 46.5889C59.4528 46.6667 59.2967 46.6667 59.1407 46.6667C58.9847 46.6667 58.9066 46.6667 58.7506 46.5889C58.5165 46.5111 58.2825 46.4333 58.0484 46.2778C57.8143 46.1222 57.4242 45.8111 56.9561 45.3444C56.488 44.8778 56.1759 44.5667 56.1759 44.5667C56.566 44.8 56.9561 44.8778 57.3462 44.8778H57.4242C57.8923 44.8778 58.1264 44.7222 58.1264 44.4111V44.3333C58.1264 44.0222 57.6583 43.5556 56.8 42.8556L57.4242 41.4556Z" fill="white"/>
<path d="M72.0143 38.1889C72.0143 38.4222 72.0923 38.7333 72.2483 38.9667C72.3264 39.2 72.4824 39.3556 72.6384 39.5111C72.8725 39.7445 73.0286 39.9 73.2626 39.9778L70.8439 41.7667C70.4538 41.5333 70.0637 41.2222 69.8297 40.7556C69.5956 40.4445 69.4395 39.9778 69.2835 39.5111L66.2406 41.7667C64.7582 41.2222 63.9 40.2111 63.6659 38.8889C63.5879 38.6556 63.5879 38.4222 63.5879 38.1111V32.5111C63.5879 31.9667 63.9 31.3445 64.5242 30.6445C64.9923 30.1 65.6945 29.5556 66.5527 29.0889C67.567 28.4667 68.5033 27.9222 69.5176 27.5334C70.4538 27.9222 71.156 28.4667 71.6242 29.1667C71.9362 29.7111 72.1703 30.4111 72.1703 31.1111V38.1889H72.0143ZM72.3264 24.2667L70.2198 25.8222C70.0637 25.9 69.9077 25.9778 69.8297 26.0556C69.5956 26.1334 69.4395 26.2111 69.2055 26.2889C69.0494 26.2889 68.8934 26.3667 68.7373 26.3667C68.4253 26.3667 68.1132 26.2889 67.8791 26.0556C67.8011 25.9778 67.7231 25.9 67.645 25.8222L67.411 25.5889C67.1769 25.3556 66.9428 25.2 66.7868 25.1222C66.4747 24.8889 66.1626 24.8111 65.9286 24.8111C65.7725 24.8111 65.6165 24.8111 65.5384 24.8889C65.5384 24.8889 65.4604 24.9667 65.3824 25.0445C65.3044 25.1222 65.1483 25.2 65.0703 25.2778C64.8362 25.5111 64.6802 25.5889 64.6802 25.5889L64.5242 25.1222L66.3187 23.8C66.5527 23.5667 66.8648 23.4111 67.0989 23.3334C67.3329 23.2556 67.489 23.1778 67.645 23.1778C67.7231 23.1778 67.8011 23.1778 67.8791 23.1778C68.0351 23.1778 68.2692 23.3334 68.5033 23.4889L69.0494 23.8778L69.5956 24.2667C69.8297 24.5 70.1417 24.5778 70.5319 24.5778C70.6099 24.5778 70.7659 24.5778 70.8439 24.5778C71 24.5778 71.156 24.5 71.3121 24.5C71.3901 24.5 71.3901 24.5 71.4681 24.4222L72.2483 23.9556L72.3264 24.2667ZM69.0494 31.1111C69.0494 30.6445 68.7373 30.2556 68.1132 29.8667C67.0989 30.6445 66.5527 31.5 66.5527 32.3556V38.1889C66.5527 38.6556 66.8648 39.0445 67.489 39.4333L69.0494 38.2667V31.1111Z" fill="white"/>
<path d="M82.6253 39.4334L79.5044 41.7667C79.3484 41.7667 79.1923 41.7667 79.0363 41.6889C78.8022 41.6889 78.6462 41.6111 78.4121 41.5334C77.8659 41.3778 77.3978 41.1445 77.0077 40.8334C75.7593 39.9778 74.9791 38.5778 74.667 36.5556C74.589 35.9334 74.511 35.3889 74.511 34.7667C74.511 34.0667 74.589 33.2889 74.7451 32.5111C74.9791 31.2667 75.4473 30.2556 76.0714 29.4C76.9297 28.3889 78.022 27.6111 79.4264 27.3C81.8451 28 83.0154 30.8 83.0154 35.6222C83.0154 36.7111 82.9374 37.9556 82.8593 39.2L82.6253 39.4334ZM80.2846 36.0889C80.2846 31.7334 79.4264 29.6334 77.7879 29.5556C77.3198 30.4111 77.0857 31.5 77.0857 32.8222C77.0857 33.6 77.1637 34.5334 77.3198 35.4667C77.3978 36.2445 77.7099 36.9445 78.256 37.6445C78.8022 38.3445 79.5044 38.8889 80.2846 39.1222V36.0889Z" fill="white"/>
<path d="M18.4132 65.8778L19.5055 66.8889C20.0517 67.4333 20.2857 67.8222 20.2857 68.0555V72.1778L13.8099 77C13.7319 77 13.3418 76.8444 12.5616 76.6111C11.7813 76.3 11.3132 76.1444 11.0791 76.0667C7.56816 74.3555 5.30552 71.9444 4.36925 68.9889C4.05717 67.9778 3.90112 67.0444 3.90112 66.1889C3.90112 65.9555 3.90112 65.7222 3.90112 65.4889C3.97915 64.4 4.36925 63.3111 4.99343 62.1444C5.53958 61.1333 6.47585 59.9666 7.7242 58.8C8.19233 58.4111 9.05057 57.7111 10.2989 56.8555C11.5473 56 12.4835 55.5333 13.1077 55.4555C13.1857 55.4555 13.2638 55.4555 13.3418 55.4555C13.8879 55.4555 14.4341 55.6111 15.0583 55.8444C15.2923 56 15.9945 56.3111 17.0088 56.9333C17.711 57.3222 18.2572 57.5555 18.7253 57.5555C18.8813 57.5555 19.0374 57.5555 19.1934 57.4778L19.1154 58.5666C18.8813 59.8889 18.3352 60.5111 17.4769 60.5111C17.1649 60.5111 16.8528 60.4333 16.5407 60.2778C16.3066 60.2 15.8385 59.8889 15.0583 59.4222C14.3561 58.9555 13.7319 58.6444 13.3418 58.5666C12.8737 58.4111 12.4055 58.4111 11.9374 58.4111C11.2352 58.4111 10.455 58.5666 9.67475 58.8778C9.05057 59.1111 8.50442 59.5 8.03629 60.0444C7.56816 60.5889 7.25607 61.2111 7.10002 61.8333C6.94398 62.5333 6.78794 63.2333 6.78794 63.9333C6.78794 64.4 6.86596 64.8666 6.94398 65.3333C7.17805 66.3444 7.64618 67.4333 8.34838 68.6C9.83079 71.0111 12.3275 72.8778 15.7605 74.1222L17.633 72.7222V70.3889C17.633 70.1555 17.4769 69.8444 17.0868 69.4555C16.6967 69.0666 16.2286 68.6 15.6044 68.0555L18.4132 65.8778Z" fill="white"/>
<path d="M29.6483 61.0556C30.5846 61.4444 31.2868 61.9889 31.7549 62.6889L29.2582 64.5556C29.2582 64.0889 28.9461 63.7 28.322 63.3889L26.7615 64.5556V71.3222C26.7615 71.6333 26.8395 71.9445 26.9176 72.2556C26.9956 72.4889 27.1516 72.7222 27.3077 72.8778C27.5417 73.1111 27.6978 73.2667 27.9319 73.4222L25.5132 75.2111L25.4352 75.1333L25.3571 75.0556C25.2791 74.9778 25.2011 74.9 25.045 74.8222C24.967 74.7444 24.811 74.6667 24.733 74.5111C24.4989 74.2778 24.2648 73.9667 24.1088 73.7333C23.9527 73.3445 23.7967 72.9556 23.7967 72.5667V64.9444C23.7967 64.3222 23.5626 63.7778 23.1725 63.3111C22.9385 63.0778 22.7824 62.9222 22.5483 62.7667L24.967 60.9778H25.045H25.1231L25.2011 61.0556C25.2791 61.1333 25.3571 61.1333 25.4352 61.2111C25.5132 61.2889 25.5912 61.3667 25.7472 61.4444C25.9813 61.6778 26.1374 61.8333 26.2934 62.0667C26.5275 62.3778 26.6055 62.6889 26.6835 63L29.6483 61.0556Z" fill="white"/>
<path d="M35.8121 69.3778C35.8901 69.7667 36.0462 70.1556 36.2022 70.4667C36.4363 70.9333 36.7484 71.3222 37.1385 71.7111C37.9187 72.4111 38.855 72.8 40.1033 72.8C40.4934 72.8 40.8835 72.8 41.2736 72.7222L37.9187 75.2889C37.7627 75.2889 37.6066 75.2889 37.4506 75.2111C37.2165 75.2111 37.0605 75.1333 36.8264 75.0556C36.2802 74.9 35.8121 74.6667 35.422 74.3556C34.1736 73.5 33.3934 72.1 33.0813 70.0778C33.0033 69.4556 32.9253 68.9111 32.9253 68.2889C32.9253 67.5889 33.0033 66.8111 33.1594 66.0333C33.7055 63.2333 35.344 61.4444 37.9187 60.7444L41.1956 65.2556L41.1176 65.3333L35.8121 69.3778ZM36.2022 63C35.7341 63.8556 35.5 64.9444 35.5 66.2667C35.5 66.8889 35.578 67.5111 35.6561 68.2111L38.4649 66.0333L36.2022 63Z" fill="white"/>
<path d="M46.5011 69.3778C46.5791 69.7667 46.7351 70.1556 46.8912 70.4667C47.1252 70.9333 47.4373 71.3222 47.8274 71.7111C48.6077 72.4111 49.5439 72.8 50.7923 72.8C51.1824 72.8 51.5725 72.8 51.9626 72.7222L48.6077 75.2889C48.4516 75.2889 48.2956 75.2889 48.1395 75.2111C47.9055 75.2111 47.7494 75.1333 47.5154 75.0556C46.9692 74.9 46.5011 74.6667 46.111 74.3556C44.8626 73.5 44.0824 72.1 43.7703 70.0778C43.6923 69.4556 43.6143 68.9111 43.6143 68.2889C43.6143 67.5889 43.6923 66.8111 43.8483 66.0333C44.3945 63.2333 46.0329 61.4444 48.6077 60.7444L51.8846 65.2556L51.8066 65.3333L46.5011 69.3778ZM46.8912 63C46.423 63.8556 46.189 64.9444 46.189 66.2667C46.189 66.8889 46.267 67.5111 46.345 68.2111L49.1538 66.0333L46.8912 63Z" fill="white"/>
<path d="M57.9704 71.3222C57.9704 72.2555 58.3605 72.9556 59.1407 73.4222L56.722 75.2111C55.5517 74.3555 55.0056 73.2667 55.0056 72.0222V65.0222C55.0056 64.4 54.7715 63.8555 54.3814 63.3889C54.1473 63.1555 53.9913 63 53.7572 62.8444L56.1759 61.0555H56.2539H56.3319L56.4099 61.1333C56.488 61.2111 56.566 61.2111 56.644 61.2889C56.722 61.3667 56.8001 61.4444 56.9561 61.5222C57.1902 61.7555 57.3462 61.9111 57.5023 62.1444C57.7363 62.4555 57.8143 62.7667 57.8924 63.0778L60.7792 60.9C61.7154 61.2889 62.4176 61.8333 62.8858 62.5333C63.1979 63.0778 63.4319 63.7778 63.4319 64.4778V71.1667C63.4319 72.1 63.822 72.8 64.6023 73.2667L62.1836 75.0556C61.0132 74.2 60.4671 73.1111 60.4671 71.8667V64.5555C60.4671 64.0889 60.155 63.7 59.5308 63.3111L57.8924 64.4778V71.3222H57.9704Z" fill="white"/>
<path d="M75.0571 58.8778C73.6527 58.7222 72.3263 58.1778 71.078 57.4C69.8296 56.6222 68.8154 55.3778 68.1132 53.6667C68.1912 53.8222 68.6593 54.1333 69.5176 54.5222C70.3758 54.9889 71.3901 55.2222 72.6384 55.3778C73.1066 55.4555 74.4329 55.5333 76.6956 55.6111C78.9582 55.6889 80.6747 56 81.767 56.5444C82.8593 57.0889 83.8736 58.4111 84.7318 60.5889C83.9516 59.8889 81.767 59.3444 78.334 59.0333H77.8659C77.6318 59.8889 77.4758 60.9778 77.4758 62.1444C77.4758 62.4555 77.4758 62.7667 77.4758 63.1555L77.6318 65.2555L77.7099 65.4889V65.5667C77.9439 65.5667 78.1 65.5667 78.334 65.5667C80.0505 65.5667 81.611 66.1111 83.0934 67.1222L79.8165 68.8333C79.2703 68.1333 78.6461 67.6667 77.9439 67.5111C78.0219 68.2111 78.0219 68.8333 78.0219 69.3778C78.0219 71.6333 77.4758 73.2667 76.4615 74.3555C75.1351 75.6778 73.8868 76.4556 72.8725 76.6111C73.1846 76.5333 73.5747 76.2222 73.8868 75.8333C74.1208 75.5222 74.3549 75.0556 74.511 74.5111C74.589 74.1222 74.667 73.6556 74.667 73.1889C74.667 72.9555 74.667 72.6444 74.589 72.3333L73.8088 67.4333H73.6527C73.0285 67.4333 72.0143 67.5111 70.6879 67.7444C71.8582 67.0444 72.8725 66.5778 73.6527 66.2667C73.4967 65.6444 73.4186 65.0222 73.4186 64.4C73.4186 64.0889 73.4186 63.8555 73.4967 63.5444C73.5747 61.6778 74.1208 60.2 75.0571 58.8778Z" fill="white"/>
<path d="M94.0165 71.6333C94.0165 71.8667 94.0945 72.1778 94.2505 72.4111C94.3286 72.6445 94.4846 72.8 94.6407 72.9556C94.8747 73.1889 95.0308 73.3445 95.2648 73.4222L92.8461 75.2111C92.456 74.9778 92.0659 74.6667 91.8319 74.2C91.5978 73.8889 91.4417 73.4222 91.2857 72.9556L88.2428 75.2111C86.7604 74.6667 85.9022 73.6556 85.6681 72.3333C85.5901 72.1 85.5901 71.8667 85.5901 71.5556V65.9556C85.5901 65.4111 85.9022 64.7889 86.5264 64.0889C86.9945 63.5445 87.6967 63 88.5549 62.5333C89.5692 61.9111 90.5055 61.3667 91.5198 60.9778C92.456 61.3667 93.1582 61.9111 93.6264 62.6111C93.9385 63.1556 94.1725 63.8556 94.1725 64.5556V71.6333H94.0165ZM91.0516 64.5556C91.0516 64.0889 90.7395 63.7 90.1154 63.3111C89.1011 64.0889 88.5549 64.9444 88.5549 65.8V71.6333C88.5549 72.1 88.867 72.4889 89.4912 72.8778L91.0516 71.7111V64.5556Z" fill="white"/>
<path d="M100.258 69.3778C100.336 69.7667 100.492 70.1556 100.648 70.4667C100.882 70.9333 101.195 71.3222 101.585 71.7111C102.365 72.4111 103.301 72.8 104.549 72.8C104.94 72.8 105.33 72.8 105.72 72.7222L102.365 75.2889C102.209 75.2889 102.053 75.2889 101.897 75.2111C101.663 75.2111 101.507 75.1333 101.273 75.0556C100.726 74.9 100.258 74.6667 99.8682 74.3556C98.6198 73.5 97.8396 72.1 97.5275 70.0778C97.4495 69.4556 97.3715 68.9111 97.3715 68.2889C97.3715 67.5889 97.4495 66.8111 97.6055 66.0333C98.1517 63.2333 99.7901 61.4444 102.365 60.7444L105.642 65.2556L105.564 65.3333L100.258 69.3778ZM100.648 63C100.18 63.8556 99.9462 64.9444 99.9462 66.2667C99.9462 66.8889 100.024 67.5111 100.102 68.2111L102.911 66.0333L100.648 63Z" fill="white"/>
<path d="M114.614 61.0556C115.551 61.4444 116.253 61.9889 116.721 62.6889L114.224 64.5556C114.224 64.0889 113.912 63.7 113.288 63.3889L111.727 64.5556V71.3222C111.727 71.6333 111.805 71.9445 111.884 72.2556C111.962 72.4889 112.118 72.7222 112.274 72.8778C112.508 73.1111 112.664 73.2667 112.898 73.4222L110.479 75.2111L110.401 75.1333L110.323 75.0556C110.245 74.9778 110.167 74.9 110.011 74.8222C109.933 74.7444 109.777 74.6667 109.699 74.5111C109.465 74.2778 109.231 73.9667 109.075 73.7333C108.919 73.3445 108.763 72.9556 108.763 72.5667V64.9444C108.763 64.3222 108.529 63.7778 108.138 63.3111C107.904 63.0778 107.748 62.9222 107.514 62.7667L109.933 60.9778H110.011H110.089L110.167 61.0556C110.245 61.1333 110.323 61.1333 110.401 61.2111C110.479 61.2889 110.557 61.3667 110.713 61.4444C110.947 61.6778 111.103 61.8333 111.259 62.0667C111.493 62.3778 111.571 62.6889 111.649 63L114.614 61.0556Z" fill="white"/>
<path d="M122.729 71.3222C122.729 71.9444 122.963 72.4889 123.353 72.9555C123.587 73.1889 123.743 73.3444 123.977 73.5L121.558 75.2889L121.48 75.2111L121.402 75.1333C121.324 75.0555 121.246 74.9778 121.09 74.9C121.012 74.8222 120.856 74.7444 120.778 74.5889C120.544 74.3555 120.31 74.0444 120.154 73.8111C119.998 73.4222 119.842 73.0333 119.842 72.6444V65.0222C119.842 64.4 119.608 63.8555 119.218 63.3889C118.983 63.1555 118.827 63 118.593 62.8444L121.012 61.0555L121.09 61.1333L121.168 61.2111C121.246 61.2889 121.324 61.3667 121.48 61.4444C121.558 61.5222 121.714 61.6 121.792 61.6778C122.026 61.9111 122.26 62.2222 122.416 62.4555C122.573 62.8444 122.729 63.2333 122.729 63.6222V71.3222ZM121.09 57.1667C121.168 57.3222 121.246 57.4778 121.402 57.5555C121.558 57.7111 121.714 57.8667 121.948 58.0222C122.26 58.2555 122.651 58.3333 123.119 58.3333C123.353 58.3333 123.587 58.3333 123.821 58.2555C123.431 58.9555 122.963 59.5778 122.416 59.9667C121.948 60.2778 121.558 60.4333 121.09 60.4333C120.31 60.4333 119.53 59.9667 118.749 59.0333L121.09 57.1667Z" fill="white"/>
<path d="M129.126 69.3778C129.204 69.7667 129.36 70.1556 129.517 70.4667C129.751 70.9333 130.063 71.3222 130.453 71.7111C131.233 72.4111 132.169 72.8 133.418 72.8C133.808 72.8 134.198 72.8 134.588 72.7222L131.233 75.2889C131.077 75.2889 130.921 75.2889 130.765 75.2111C130.531 75.2111 130.375 75.1333 130.141 75.0556C129.595 74.9 129.126 74.6667 128.736 74.3556C127.488 73.5 126.708 72.1 126.396 70.0778C126.318 69.4556 126.24 68.9111 126.24 68.2889C126.24 67.5889 126.318 66.8111 126.474 66.0333C127.02 63.2333 128.658 61.4444 131.233 60.7444L134.51 65.2556L134.432 65.3333L129.126 69.3778ZM129.517 63C129.048 63.8556 128.814 64.9444 128.814 66.2667C128.814 66.8889 128.892 67.5111 128.97 68.2111L131.779 66.0333L129.517 63Z" fill="white"/>
<path d="M127.332 51.8778L115.394 37.2556L103.535 51.8L107.514 33.6778L87.5406 33.7556L105.33 25.1222L91.9879 8.86667L110.869 18.2L114.848 0L119.218 18.4333L138.255 9.25556L125.147 25.2778L142 33.5222L122.963 33.6L127.332 51.8778ZM108.763 33.6778L105.876 46.7444L114.458 36.2444L112.352 33.6778H108.763ZM116.175 36.2444L124.679 46.6667L121.558 33.6778H118.281L116.175 36.2444ZM114.068 33.6778L115.316 35.2333L116.643 33.6778H114.068ZM106.188 26.2111L93.2363 32.5111L107.67 32.4333L108.451 29.0111L106.188 26.2111ZM109.543 30.2556L109.075 32.3556H111.259L109.543 30.2556ZM109.933 28.6222L112.976 32.3556H117.657L120.466 28.9333L119.218 23.7222L115.238 21.7778L110.947 23.8778L109.933 28.6222ZM120.856 30.5667L119.374 32.3556H121.246L120.856 30.5667ZM121.87 29.2444L122.573 32.2778L136.382 32.2L124.289 26.2111L121.87 29.2444ZM120.778 24.5L121.558 27.6889L123.197 25.6667L120.778 24.5ZM107.436 25.5889L108.841 27.3L109.465 24.5778L107.436 25.5889ZM120.388 22.8667L124.055 24.6556L133.652 12.9889L119.686 19.7556L120.388 22.8667ZM96.8253 12.6778L106.578 24.5L109.777 22.9444L110.557 19.4444L96.8253 12.6778ZM111.805 20.0667L111.337 22.2444L113.834 21.0778L111.805 20.0667ZM116.799 21.0778L118.827 22.0889L118.359 20.3L116.799 21.0778ZM112.118 18.7444L115.316 20.3L118.125 18.9778L115.004 5.83333L112.118 18.7444Z" fill="white"/>
</svg>
