<svg width="412" height="513" viewBox="0 0 412 513" fill="none" xmlns="http://www.w3.org/2000/svg">
<path d="M172.708 31.4209C171.324 28.6599 172.708 25.3466 169.94 25.2362C164.774 25.0153 161.083 22.1438 157.67 17.947L154.441 14.192C156.378 12.8667 154.718 7.34463 159.146 8.55949C160.069 8.78037 162.283 7.34463 162.283 6.4611C162.467 3.25829 164.22 2.26431 165.881 3.58961C166.896 4.3627 170.77 5.46712 168.003 9.22214C167.726 9.66391 168.649 11.9832 169.479 12.8667C171.601 15.186 171.601 12.6458 171.601 11.0996C171.509 9.00126 175.752 7.45507 172.062 5.02535C172.708 4.3627 173.261 3.36873 174 3.25829C175.476 2.92696 177.044 3.14784 178.52 3.14784C178.797 3.92094 178.981 4.69403 179.258 5.46712C179.812 4.69403 180.273 3.92094 180.827 3.14784C182.303 2.59564 184.517 1.04945 185.071 1.7121C187.654 4.80447 188.3 -0.717616 190.606 0.276359C192.267 1.04945 194.389 0.386801 196.234 0.386801C198.171 0.386801 200.293 -0.386291 201.862 0.497243C206.659 3.14784 211.272 -0.386291 215.977 0.386801C218.837 0.828568 221.697 1.82254 224.557 1.82254C227.509 1.82254 230.462 0.607684 233.506 0.386801C236.551 0.165917 239.595 0.0554757 242.64 0.386801C249.559 1.15989 256.479 1.93298 263.306 3.25829C264.413 3.47917 264.874 6.57154 266.166 7.56551C267.181 8.33861 269.303 15.4069 270.225 7.34463C270.317 6.90286 271.332 6.12977 271.609 6.35065C274.469 7.89684 277.883 9.00126 280.005 11.5414C281.481 13.3085 281.112 17.0635 281.665 19.935C281.85 20.7081 282.311 21.3707 282.68 22.1438C283.234 21.5916 283.879 21.1498 284.248 20.3768C284.987 18.941 285.448 17.2844 286.278 15.9591C286.647 15.4069 287.754 14.9651 288.308 15.186C292.552 17.2844 296.519 20.4872 300.855 21.5916C305.468 22.696 306.206 26.7824 307.959 30.3165C311.834 25.678 314.971 30.3165 316.447 32.7462C318.292 35.8386 323.643 39.1518 319.03 44.8948C318.845 45.1157 320.045 47.8767 321.06 48.5394C323.643 50.196 322.628 47.2141 322.905 45.9992C323.366 44.453 323.735 43.0173 324.196 41.4711C324.565 42.686 325.027 43.7904 325.211 45.1157C325.396 46.441 325.211 47.8767 325.303 49.202C325.488 53.2884 326.503 51.4109 328.348 50.3065C330.285 49.202 333.422 47.3245 334.437 52.2944C332.776 52.6257 330.378 51.0796 330.009 54.3928C329.916 55.3868 331.393 56.7121 332.131 57.8165C331.577 58.9209 331.024 59.9149 330.562 61.1298C328.994 64.7743 329.64 67.7563 332.315 70.4069C334.898 73.0575 336.098 70.4069 337.851 68.9711C339.511 67.6458 341.633 66.9832 343.571 65.9892C345.969 70.2964 348.276 74.6036 350.951 78.69C351.413 79.3526 353.535 78.3587 354.826 78.1378C354.918 80.3466 354.457 82.8868 355.103 84.8747C355.841 87.0836 357.594 88.8506 359.07 90.6177C359.347 90.949 360.454 90.5073 361.1 90.0655C361.284 89.955 361.192 88.6297 360.915 88.2984C359.9 86.8627 358.332 85.8687 357.871 84.3225C357.317 82.445 357.686 80.1257 357.686 77.9169C359.07 78.9109 360.823 79.5735 361.653 80.8988C364.513 85.7583 366.82 91.1699 369.864 95.9189C372.632 100.116 376.599 103.539 373.37 109.724C376.322 111.491 373.37 118.449 378.721 118.228C379.182 118.228 379.644 120.879 380.105 122.314C378.813 122.425 377.43 122.867 376.23 122.646C375.215 122.425 374.385 120.989 373.462 120.879C372.724 120.879 371.433 121.983 371.248 122.867C371.064 123.861 371.71 125.738 372.448 126.069C374.385 127.063 376.507 127.947 378.537 128.168C386.286 128.941 387.209 135.347 387.117 142.636C386.379 142.636 385.548 142.636 384.81 142.636C385.179 138.108 377.891 140.869 379.551 135.015C378.26 135.236 377.061 135.347 375.769 135.567C376.691 138.77 373.001 143.409 378.906 146.17C379.644 146.391 379.275 145.949 378.906 145.397C378.537 145.839 378.26 146.17 377.891 146.612C378.352 147.053 378.813 147.495 379.275 147.827C379.367 147.827 379.736 147.274 378.906 146.17C378.906 140.096 382.504 143.63 384.718 142.636C384.995 143.409 385.179 144.182 385.456 144.955C386.01 144.182 386.471 143.409 387.024 142.636C387.947 144.624 394.221 162.294 393.852 162.736C389.884 167.485 391.545 169.473 396.066 171.461C399.572 173.007 398.28 177.535 398.926 181.953C398.188 181.732 397.819 181.069 397.45 181.069C396.435 181.069 395.512 181.511 394.497 181.732C394.59 182.284 394.774 183.499 394.866 183.499C396.066 183.499 397.357 183.278 398.926 182.063C400.586 185.377 404.092 197.304 402.893 198.298C397.819 202.606 402.524 206.471 403.262 209.784C404.554 215.859 405.753 220.718 405.384 226.903C405.292 228.891 405.661 231.32 406.583 233.088C408.059 235.959 406.491 235.628 405.107 235.849C402.616 236.18 403.17 237.395 404.461 238.941C406.86 241.923 403.539 243.469 403.354 245.567C403.262 247.114 405.753 248.77 407.137 250.427C406.491 251.09 406.03 252.083 405.292 252.304C401.694 253.409 402.708 255.618 404.277 258.047C405.199 259.594 406.03 261.25 406.86 262.907C400.31 263.901 405.199 266.33 406.214 268.76C407.045 270.969 407.967 274.393 407.137 275.939C405.937 278.258 406.214 278.81 407.229 281.019C408.613 283.891 407.967 284.333 404.646 283.118C402.708 282.345 400.955 281.792 400.771 285.326C400.125 285.658 399.479 285.879 398.834 286.21C399.479 286.873 400.125 287.425 400.771 288.088C400.586 288.861 400.31 289.523 400.125 290.296C399.848 291.18 399.479 292.063 399.203 292.947C399.848 293.168 400.586 293.72 401.048 293.499C402.524 292.726 404 291.732 405.384 290.849C407.506 293.72 407.137 296.592 405.384 299.353C402.801 303.439 403.815 305.869 407.69 307.304C407.783 309.624 403.815 311.943 407.783 314.373C408.521 314.814 409.166 317.686 408.982 317.907C406.399 320.226 410.458 321.551 409.628 322.656C408.797 323.65 406.86 323.208 405.661 323.871C404.092 324.754 402.432 325.859 401.417 327.515C400.863 328.399 401.694 330.497 401.97 331.933C402.801 331.049 403.539 330.055 404.369 329.282C404.554 329.061 405.107 329.282 405.476 329.282C405.476 331.16 405.476 332.927 405.476 335.357C405.476 335.577 405.476 335.136 405.476 334.694C404.923 334.915 404.185 335.136 403.723 335.577C403.539 335.688 404 336.682 404.092 337.234C404.554 336.792 405.015 336.351 405.476 335.357C408.89 334.473 407.414 331.381 407.783 329.282C408.705 330.608 411.934 326.19 411.381 332.154C410.643 339.774 404.185 346.953 409.905 355.347C410.366 356.009 408.428 358.881 407.967 360.869C407.69 362.083 412.396 363.409 408.059 364.734C407.506 364.955 405.937 362.857 405.661 361.642C405.292 359.433 405.661 357.114 405.476 354.905C405.292 352.806 404.83 350.708 404.461 348.61C402.616 349.824 400.033 350.487 399.203 352.254C398.464 354.021 399.387 357.003 400.033 359.322C400.31 360.206 401.786 360.758 402.708 361.421C401.232 361.863 401.232 366.059 398.649 363.63C398.188 363.188 397.173 363.63 396.343 363.74C396.619 364.955 396.619 366.722 397.265 367.274C399.018 368.6 400.955 369.814 402.985 370.367C407.414 371.471 405.384 375.116 405.107 377.656C404.738 380.527 400.217 372.134 400.863 379.644C401.14 382.626 400.125 386.049 402.985 388.148C402.524 388.7 402.063 389.694 401.601 389.694C400.586 389.583 398.741 389.031 398.741 388.479C398.372 380.527 395.328 386.16 394.774 387.706C394.036 389.804 394.405 392.676 394.959 394.995C395.604 397.314 397.265 399.302 398.003 401.622C399.756 406.923 396.435 406.15 393.39 406.26C393.206 406.26 393.575 406.26 393.944 406.26C393.759 405.598 393.575 404.714 393.206 404.162C393.113 403.941 392.283 404.493 391.822 404.604C392.191 405.156 392.56 405.708 393.39 406.26C392.375 410.457 390.346 414.543 389.423 419.071C387.947 426.25 385.825 422.606 383.519 420.065C383.334 419.845 382.781 420.065 382.411 420.065C382.411 418.188 382.412 416.421 383.057 413.328C383.242 412.445 382.873 412.887 382.411 413.328C382.781 413.77 383.057 414.102 383.426 414.543C383.795 413.991 384.164 413.439 384.441 412.887C384.533 412.776 383.98 412.334 383.057 413.328C380.659 414.985 377.983 413.218 377.799 417.967C377.799 418.188 377.799 417.746 377.799 417.304C377.245 417.525 376.507 417.746 376.046 418.077C375.861 418.188 376.322 419.182 376.415 419.734C376.876 419.292 377.337 418.851 377.799 417.857C379.367 418.188 380.843 419.071 382.411 419.955C382.411 422.716 382.781 425.477 382.319 428.128C381.858 430.557 386.84 431.772 382.965 434.312C383.519 434.975 383.98 436.19 384.533 436.3C387.393 436.632 387.578 438.84 386.471 440.828C385.917 441.822 383.795 441.602 382.411 441.933C382.135 441.16 381.95 440.387 381.673 439.614C381.12 440.387 380.659 441.16 380.105 441.933C376.046 443.921 377.891 447.013 378.813 450.216C379.09 451.21 378.537 452.867 378.075 453.971C376.968 456.29 375.953 455.075 374.939 453.64C374.201 452.646 373.462 451.541 372.54 450.879C368.849 448.118 374.293 447.013 373.831 443.479C374.016 442.595 373.647 443.037 373.186 443.479C373.555 443.921 373.831 444.252 374.201 444.694C374.57 444.142 374.939 443.589 375.215 443.037C375.215 442.927 374.754 442.485 373.831 443.479C366.451 447.013 362.207 437.957 355.749 438.951C355.472 438.951 354.918 438.288 355.011 438.067C355.841 430.116 351.782 428.238 346.431 427.575C346.154 427.575 345.785 425.256 345.969 424.041C346.062 422.716 346.615 421.501 346.984 420.176C345.969 420.397 344.77 420.397 343.94 421.059C343.017 421.722 342.279 422.937 341.449 423.931C337.113 429.453 337.389 432.104 342.925 436.632C343.755 437.294 346.707 438.067 344.77 438.73C337.297 441.049 344.216 444.583 344.586 444.583C346.8 444.804 347.999 445.246 348.091 448.338C348.184 451.32 346.062 455.959 351.505 456.18C352.427 456.18 349.383 463.911 347.446 463.911C347.169 463.911 346.338 462.144 346.523 461.702C348.645 457.836 343.94 455.186 345.139 451.21C345.231 450.768 341.726 448.007 339.88 447.897C338.865 447.786 337.389 450.879 336.559 452.756C336.098 453.861 336.928 456.069 336.375 456.732C333.238 460.266 334.898 461.15 338.035 461.923C338.404 462.033 338.496 464.242 338.681 465.457C337.851 465.346 337.113 465.236 336.282 465.126C334.991 465.015 333.699 464.905 332.407 464.794C332.315 466.009 331.854 467.776 332.315 468.439C335.636 472.304 333.053 471.863 330.654 472.415C328.994 472.746 327.333 474.071 326.042 475.397C323.735 477.716 326.687 482.907 322.812 484.674C323.827 485.116 325.303 486.33 325.673 485.889C330.101 481.471 330.931 485.668 331.946 489.423C333.607 495.828 333.238 495.387 331.762 497.043C327.794 501.461 326.226 496.822 324.196 494.393C322.813 492.736 322.167 489.754 320.598 488.871C318.569 487.656 316.354 488.871 314.694 491.3C314.232 491.963 312.48 491.411 311.372 491.411C310.819 490.527 310.358 488.981 309.62 488.76C307.867 488.208 305.468 488.65 308.236 485.336C308.881 484.563 308.512 482.355 309.066 481.913C313.679 478.489 310.081 475.397 308.974 472.194C309.62 471.863 310.358 471.752 310.911 471.2C314.232 467.776 317.462 464.463 313.771 458.389C312.849 456.953 312.572 452.867 316.447 452.756C317 452.756 318.384 449.774 318.015 448.891C317.092 446.571 315.524 444.694 314.14 442.706C312.018 447.234 310.819 440.828 308.974 442.043C308.974 441.16 308.974 440.166 308.974 439.282C313.402 437.957 310.358 433.76 311.926 429.784C312.111 428.901 311.741 429.342 311.28 429.784C311.649 430.226 311.926 430.557 312.295 430.999C312.664 430.447 313.033 429.895 313.31 429.342C313.31 429.232 312.849 428.79 311.926 429.784C308.605 431.11 304.822 430.226 308.881 435.527C309.435 436.19 308.974 437.957 308.974 439.282C306.667 439.614 304.638 439.172 303.254 436.521C302.885 438.509 302.147 440.608 302.331 442.595C302.423 443.479 304.453 444.694 305.468 444.583C306.667 444.363 307.867 442.927 308.974 442.043C309.712 453.861 309.527 453.75 305.283 461.702C304.822 462.585 306.114 465.015 306.667 466.672C303.623 465.788 300.763 467.776 300.301 470.427C299.102 477.385 294.028 477.716 290.245 480.256C289.415 480.808 287.662 479.925 287.016 480.587C281.388 486.993 273.916 488.318 267.181 491.3C266.443 491.632 265.981 493.067 265.428 493.951C264.044 494.503 262.568 495.166 261.184 495.718C262.568 497.816 264.044 500.025 265.428 502.124C265.243 506.21 262.568 504.443 260.815 504.885C259.8 503.228 258.877 501.351 257.678 499.915C256.848 498.81 255.648 498.148 254.633 497.264C254.449 498.921 254.172 500.577 253.988 502.234C253.25 502.234 252.419 502.234 251.681 502.234C250.943 501.351 250.113 500.357 249.375 499.473C248.637 498.589 247.806 497.595 246.607 496.712C246.422 496.712 246.792 496.712 247.161 496.712C246.976 496.049 246.792 495.166 246.422 494.614C246.33 494.393 245.5 494.945 245.039 495.055C245.408 495.608 245.777 496.16 246.607 496.712C247.899 497.595 248.637 498.589 249.375 499.473C250.113 500.357 250.943 501.351 251.681 502.234C251.958 503.007 252.143 503.78 252.419 504.553C252.973 503.78 253.434 503.007 253.988 502.234C254.726 502.897 256.017 503.559 256.202 504.443C257.217 509.413 249.375 506.652 251.128 512.505C250.297 512.063 249.559 511.18 248.729 511.069C243.655 510.738 244.577 503.449 240.795 501.571C241.348 500.246 242.271 498.921 242.363 497.595C242.548 495.387 242.363 492.405 239.688 495.828C239.595 495.939 237.935 494.834 238.027 494.393C238.304 486.772 231.292 481.581 233.322 473.519C232.584 473.519 231.384 473.077 231.015 473.519C230.093 474.734 229.17 476.28 228.801 477.826C228.063 481.029 226.495 480.808 224.649 479.483C224.004 479.041 223.45 477.606 223.081 477.716C219.667 478.82 216.346 480.035 213.025 481.25C215.147 483.128 217.546 484.895 219.483 487.104C221.328 489.312 221.697 486.33 222.804 486.22C224.004 486.11 225.295 486.993 226.495 487.324C225.849 488.65 225.018 491.079 224.465 490.969C220.313 490.306 218.837 492.184 219.575 497.043C220.221 501.24 218.56 502.234 215.239 502.234C206.475 502.344 197.71 502.344 189.868 496.602C189.591 495.828 189.407 495.055 189.13 494.282C188.576 495.055 188.115 495.828 187.562 496.602C185.624 496.602 182.949 497.595 182.026 496.491C175.66 488.65 169.202 492.294 162.467 495.055C160.069 496.049 157.208 494.393 155.087 498.148C153.61 500.688 153.518 497.264 153.241 496.049C152.503 492.736 150.289 494.282 148.628 493.951C149.643 487.545 144.569 486.11 142.078 486.11C136.543 486.11 132.391 482.907 128.147 480.035C121.873 475.838 115.508 473.74 108.311 474.624C104.621 475.065 101.115 474.955 98.1631 470.869C96.8714 469.102 93.3656 469.654 90.8746 469.212C89.214 468.881 86.8153 470.206 87.4611 465.236C87.6456 464.353 87.2765 464.794 86.8153 465.236C87.1843 465.678 87.4611 466.009 87.8301 466.451C88.1991 465.899 88.5682 465.346 88.8449 464.794C88.8449 464.684 88.3837 464.242 87.4611 465.236C86.0772 466.451 85.2469 466.451 84.5088 466.451C83.2172 460.156 77.1281 459.272 74.6371 453.861C73.53 451.431 69.0094 450.658 65.9648 450.106C60.8906 449.332 57.4771 445.909 53.879 442.154C37.9183 425.256 29.4305 403.168 22.6956 379.644C19.9278 370.146 18.0827 360.096 13.562 351.371C10.1484 344.855 11.4401 337.234 9.22585 330.276C7.38068 324.312 7.28842 317.575 6.27358 311.17C6.18132 310.728 5.07422 310.507 4.42841 310.176C4.42841 299.242 4.42841 288.308 4.42841 277.375C4.42841 274.945 5.53551 271.632 1.66065 271.632C1.1071 271.632 0.553551 269.092 0 267.656C1.29162 267.435 2.6755 266.772 3.87486 267.104C4.8897 267.324 6.18132 270.638 6.64261 267.214C7.19616 263.79 7.01165 259.925 6.36584 256.501C5.72003 253.077 2.95227 261.692 2.2142 255.839C1.93743 253.63 2.30646 251.31 2.12195 248.991C1.84517 245.567 2.76776 244.021 5.81229 244.353C8.94908 244.684 10.6097 242.144 11.2555 238.941C12.1781 234.413 13.6543 229.664 13.3775 225.136C13.1007 220.276 15.6839 216.963 15.9607 212.656C16.8833 200.507 24.5408 173.449 28.7847 161.742C35.8886 141.642 45.9447 124.082 57.108 107.294C57.8461 106.411 58.6764 105.417 59.4145 104.533C62.828 104.312 61.3519 101.11 62.3667 97.7964C62.5513 96.9129 62.1822 97.3546 61.7209 97.7964C62.09 98.2382 62.3668 98.5695 62.7358 99.0113C63.1048 98.4591 63.4739 97.9069 63.7506 97.3546C63.7506 97.2442 63.2893 96.8024 62.3667 97.7964C60.9829 98.3486 60.0603 97.7964 59.4145 96.9129C58.8609 96.0293 58.4919 94.8145 58.1229 93.7101C57.0158 95.0354 55.5396 96.1398 55.0783 97.5755C54.8016 98.6799 55.7241 100.557 56.5545 101.662C57.2925 102.766 58.4919 103.539 59.4145 104.423C58.6764 105.306 57.8461 106.3 57.108 107.184C54.4325 105.306 51.757 103.65 49.1738 101.662C48.8048 101.441 49.1738 99.8948 49.1738 99.0113C49.1738 98.1277 49.1738 96.4711 48.9893 96.4711C47.9744 96.2502 46.7751 96.3607 45.668 96.3607C45.668 94.0414 45.2989 91.7221 45.7602 89.6237C46.1293 88.0775 47.7899 86.9731 48.8048 85.7583C49.3583 87.0836 49.8196 89.5133 50.4654 89.6237C51.8493 89.7342 53.3254 88.7402 55.8164 88.9611C56.5545 89.182 56.1854 88.7402 55.8164 88.188C55.4474 88.6297 55.1706 88.9611 54.8016 89.4028C55.2628 89.8446 55.7241 90.2864 56.1854 90.6177C56.2777 90.6177 56.6467 90.0655 55.8164 88.9611C54.5248 86.5314 54.3403 83.3285 53.9712 83.3285C49.4506 82.9972 48.9893 78.2482 50.4654 76.0394C53.5099 71.1799 53.7867 65.8787 55.1706 60.5775C56.739 54.7241 61.2596 50.0856 64.581 45.0053C65.1345 45.6679 65.8726 46.2201 66.2416 46.9932C67.0719 48.7603 67.81 50.7482 68.5481 53.1779C68.5481 53.3988 68.5481 52.9571 68.5481 52.5153C67.9945 52.7362 67.2565 52.9571 66.7952 53.2884C66.6106 53.3988 67.0719 54.3928 67.1642 54.945C67.6255 54.5032 68.0868 54.0615 68.5481 53.0675C69.3784 51.8526 70.67 51.5213 71.039 50.6378C72.6074 46.8828 75.0062 44.0113 77.6817 41.4711C80.3572 40.0354 81.372 31.7522 86.1694 38.5996C86.4462 38.931 88.1069 38.0474 89.0295 37.3848C91.2437 35.8386 91.7972 33.2984 91.4282 30.427C97.1482 29.1017 102.96 32.3045 108.957 28.1077C112.094 25.8988 111.448 26.4511 110.064 23.4691C109.419 22.0334 104.344 16.7322 111.356 16.0695C111.264 15.4069 111.079 14.7442 110.987 14.0816C110.895 13.0876 110.802 12.2041 110.802 11.2101C111.541 11.2101 112.924 10.9892 113.017 11.2101C113.939 14.6338 115.6 16.9531 118.644 17.7262C117.722 20.5976 123.165 23.2482 118.921 26.2302C120.028 27.5555 120.951 28.9912 122.243 29.9852C122.519 30.2061 124.088 28.6599 124.549 27.6659C125.748 24.684 126.21 20.929 127.963 18.4992C130.361 15.0756 131.192 13.6398 126.486 13.8607C125.564 13.8607 124.549 12.9772 123.534 12.5354C124.549 12.0936 125.472 11.431 126.486 11.2101C127.963 10.9892 130.177 11.8727 130.915 10.9892C134.328 7.12375 135.712 10.9892 137.65 12.9772C139.587 14.9651 140.417 16.8426 138.296 19.7141C137.465 20.8185 137.465 22.9169 137.281 24.5735C136.912 28.7703 137.004 31.8627 141.432 27.6659C142.263 26.8928 144.385 27.5555 145.676 28.2181C146.23 28.5494 146.23 30.5374 146.23 31.7523C146.23 31.8627 145.03 32.5253 144.754 32.3045C143.739 31.5314 142.632 28.8808 141.986 32.3045C141.801 33.188 143.277 35.2864 144.2 35.6177C145.492 35.949 147.152 35.5073 148.352 34.7342C150.566 33.4089 153.149 32.0836 154.625 29.8747C157.67 25.0153 161.083 25.5675 164.22 28.5494C166.711 31.2 169.11 30.2061 172.708 31.4209C173.446 31.6418 173.077 31.2 172.708 30.6478C172.339 31.0896 172.062 31.4209 171.693 31.8627C172.154 32.3045 172.616 32.7462 173.077 33.0776C173.077 33.0776 173.446 32.5253 172.708 31.4209ZM257.678 471.973C257.217 472.415 256.755 472.857 256.386 473.298C256.755 473.74 257.032 474.071 257.401 474.513C257.77 473.961 258.139 473.409 258.416 472.857C258.508 472.746 257.955 472.304 256.386 474.513C255.741 474.844 255.095 475.065 254.449 475.397C255.095 476.059 255.741 476.612 261.83 478.931C260.077 478.047 259.246 477.495 258.416 477.274C257.77 477.053 257.032 477.274 256.294 477.274C256.848 478.158 257.217 479.593 257.955 479.925C258.785 480.256 259.8 479.483 256.294 477.274C256.386 476.28 256.386 475.397 257.678 471.973ZM353.904 400.738C353.442 401.18 352.981 401.622 352.612 402.063C352.981 402.505 353.258 402.836 353.627 403.278C353.996 402.726 354.365 402.174 354.642 401.622C354.642 401.511 354.18 401.069 352.612 404.493C352.612 404.051 352.612 403.72 352.612 403.278C352.058 403.499 351.32 403.72 350.859 404.162C350.675 404.272 351.136 405.266 351.228 405.818C351.689 405.266 352.058 404.935 353.904 400.738ZM363.775 382.957C363.406 382.405 363.037 381.853 362.668 381.411C362.299 381.853 362.022 382.184 361.653 382.626C362.115 383.067 362.576 383.509 363.037 383.84C363.129 383.951 363.499 383.288 361.653 381.411C361.653 380.527 361.653 379.533 361.653 378.65C362.391 377.766 363.222 376.772 366.266 371.029C366.266 368.268 366.543 366.832 366.174 365.618C365.713 364.292 364.79 362.636 363.775 362.415C362.484 362.083 361.008 362.967 359.624 363.298C359.993 364.844 360.085 366.612 360.823 367.937C361.93 370.146 364.698 371.14 364.052 374.563C363.96 374.895 364.698 375.447 365.159 375.889C365.251 375.889 365.897 375.336 365.897 375.005C366.082 373.238 366.266 371.471 363.96 375.999C363.222 376.883 362.391 377.877 361.653 378.76C361.008 379.091 360.362 379.312 359.716 379.644C360.454 380.085 361.1 380.748 363.775 382.957ZM368.388 199.292C368.019 198.74 367.65 198.188 367.281 197.746C366.912 198.188 366.635 198.519 366.266 198.961C366.728 199.403 367.189 199.845 367.65 200.176C367.742 200.176 368.111 199.624 365.251 197.746C365.62 197.746 365.897 197.746 366.266 197.746C366.082 197.084 365.897 196.2 365.528 195.648C365.436 195.427 364.606 195.979 364.144 196.09C364.606 196.642 364.882 197.194 368.388 199.292ZM384.441 169.142C384.072 168.59 383.703 168.037 383.334 167.596C382.965 168.037 382.688 168.369 382.319 168.81C382.781 169.252 383.242 169.694 383.703 170.025C383.795 170.025 384.164 169.473 381.304 167.596C381.673 167.596 381.95 167.596 382.319 167.596C382.135 166.933 381.95 166.049 381.581 165.497C381.489 165.276 380.659 165.829 380.197 165.939C380.566 166.491 380.935 167.043 384.441 169.142ZM114.216 45.8888C113.847 45.3366 113.478 44.7844 113.109 44.3426C112.74 44.7844 112.463 45.1157 112.094 45.5575C112.555 45.9992 113.017 46.441 113.478 46.7723C113.57 46.7723 113.939 46.2201 112.094 44.3426C112.094 43.4591 112.094 42.4651 113.478 35.0655C112.74 37.1639 112.279 38.1579 112.094 39.1518C111.91 39.9249 112.094 40.8085 112.094 41.692C112.832 41.0294 114.032 40.5876 114.308 39.7041C114.585 38.7101 113.939 37.4952 112.094 41.692C111.448 42.0233 110.802 42.2442 110.157 42.5755C110.802 43.0173 111.448 43.68 114.216 45.8888ZM359.439 120.768C358.701 121.21 357.963 121.873 357.133 122.425C357.502 122.867 357.963 123.75 358.148 123.64C359.255 123.308 360.362 122.646 361.469 122.094C360.915 121.762 360.269 121.321 357.04 124.965C357.04 124.523 357.04 124.192 357.04 123.75C356.487 123.971 355.749 124.192 355.288 124.634C355.103 124.744 355.564 125.738 355.657 126.29C356.21 125.849 356.671 125.407 359.439 120.768ZM397.357 312.826C397.726 312.826 398.003 312.826 398.372 312.826C398.188 312.164 398.003 311.28 397.634 310.728C397.542 310.507 396.712 311.059 396.25 311.17C396.619 311.722 396.988 312.274 400.771 315.587C400.402 314.704 399.848 313.82 399.387 312.826C399.018 313.268 398.28 313.82 398.372 314.041C398.649 315.367 399.203 316.692 399.664 318.017C400.033 317.355 400.31 316.692 397.357 312.826ZM390.069 328.509C388.87 327.294 388.501 326.632 388.132 326.632C387.117 326.632 386.194 327.073 385.179 327.294C385.272 327.847 385.456 329.061 385.548 329.061C386.748 329.061 388.039 328.84 390.53 324.091C390.069 324.533 389.608 324.975 389.239 325.417C389.608 325.859 389.884 326.19 390.253 326.632C390.623 326.079 390.992 325.527 391.268 324.975C391.268 324.754 390.807 324.312 390.069 328.509ZM72.1462 82.6659C72.5152 82.6659 72.792 82.6659 73.161 82.6659C72.9765 82.0032 72.792 81.1197 72.4229 80.5675C72.3307 80.3466 71.5003 80.8988 71.039 81.0093C71.4081 81.5615 71.7771 82.1137 78.6965 86.3105C76.9436 84.8747 75.5597 83.6599 74.1758 82.6659C74.0836 82.5555 73.2533 83.439 73.161 83.8808C72.9765 86.0896 72.9765 88.2984 75.652 88.0775C76.2978 88.0775 76.8513 87.4149 72.1462 82.6659ZM391.73 265.005C390.623 263.68 389.792 262.575 388.777 261.802C388.408 261.581 387.486 262.244 386.84 262.575C387.486 263.79 387.947 265.337 388.87 266.11C389.331 266.551 390.623 265.447 393.759 260.588C393.021 261.029 392.283 261.692 391.453 262.244C391.822 262.686 392.283 263.569 392.468 263.459C393.575 263.128 394.682 262.465 395.789 261.913C395.328 261.471 394.682 261.14 391.73 265.005ZM395.051 340.216C395.42 340.216 395.697 340.216 396.066 340.216C395.881 339.553 395.697 338.67 395.328 338.118C395.235 337.897 394.405 338.449 393.944 338.559C394.313 339.112 394.682 339.664 395.328 341.873C396.25 344.634 396.804 346.401 397.357 348.168C398.464 346.511 399.756 345.075 400.494 343.198C400.679 342.756 399.203 340.879 398.188 340.326C397.634 340.106 396.527 341.21 395.051 340.216ZM394.128 308.851C393.483 308.188 392.837 307.304 392.652 307.415C390.807 308.519 388.777 309.624 387.301 311.28C386.84 311.832 387.67 314.373 388.316 315.698C388.777 316.692 389.884 317.244 390.623 317.907C391.822 314.925 392.929 311.832 395.143 304.764C394.682 305.206 394.221 305.648 393.852 306.09C394.221 306.531 394.497 306.863 394.866 307.304C395.235 306.752 395.604 306.2 395.881 305.648C395.881 305.537 395.328 305.096 394.128 308.851ZM384.164 370.256C386.01 370.808 385.548 370.587 385.548 370.698C384.441 372.796 383.426 375.005 382.411 377.214C383.15 377.656 384.164 378.76 384.626 378.429C386.563 377.324 387.578 383.73 389.792 379.312C390.161 378.539 390.807 377.987 391.361 377.435C389.515 375.557 387.578 373.68 382.411 379.754C382.411 379.312 382.411 378.981 382.411 378.539C381.858 378.76 381.12 378.981 380.659 379.312C380.474 379.423 380.935 380.417 381.028 380.969C381.397 380.638 381.858 380.196 384.164 370.256ZM386.932 349.383C386.932 347.616 387.024 347.063 386.932 346.732C386.194 344.855 388.685 341.1 385.272 341.21C384.257 341.21 383.057 345.075 382.411 347.395C381.95 348.941 382.135 350.929 382.411 352.585C382.504 353.138 383.795 353.69 384.533 353.911C385.087 354.021 386.286 353.579 386.379 353.138C386.748 351.481 386.84 349.824 382.319 355.236C382.319 354.794 382.319 354.463 382.319 354.021C381.766 354.242 381.028 354.463 380.566 354.794C380.382 354.905 380.843 355.899 380.935 356.451C381.397 356.009 381.858 355.567 386.932 349.383ZM80.6339 64.5534C81.6488 63.1177 82.2023 62.6759 82.2023 62.2342C82.2023 61.0193 81.8333 59.9149 81.6488 58.7C81.1875 58.8105 80.1726 59.0314 80.1726 59.1418C80.1726 60.5775 80.3572 62.1237 81.741 80.0153C83.6785 79.4631 87.092 81.5615 86.6307 76.9229C86.354 74.4932 84.3243 72.3948 86.5385 69.5233C86.8153 69.0816 84.7856 64.7743 83.1249 63.7804C82.2023 63.2281 79.9881 65.6579 78.3275 66.6518C79.1578 68.198 79.8036 69.9651 80.8185 71.4008C83.1249 74.7141 83.4017 76.8125 79.0655 77.2542C78.881 77.2542 78.7888 78.9109 78.6043 79.684C79.8036 79.7944 80.9107 79.9048 80.6339 64.5534ZM360.731 422.385C361.1 422.385 361.377 422.385 361.746 422.385C361.561 421.722 361.377 420.838 361.008 420.286C360.915 420.065 360.085 420.618 359.624 420.728C359.993 421.28 360.362 421.832 361.746 422.385C361.746 424.262 361.746 426.029 361.746 429.122C361.746 428.68 361.746 428.349 361.746 427.907C361.192 428.128 360.454 428.349 359.993 428.79C359.808 428.901 360.269 429.895 360.362 430.447C360.823 430.005 361.284 429.563 361.746 427.907C363.499 429.453 365.436 432.766 366.82 432.324C370.971 431.22 373.186 431.993 373.278 437.515C373.278 437.736 374.293 437.957 374.846 438.178C375.031 437.405 375.584 436.521 375.4 435.859C375.031 433.871 374.57 431.772 373.647 430.005C371.986 426.802 370.141 423.71 368.204 420.838C368.019 420.507 366.728 421.28 365.897 421.501C364.513 421.832 363.129 422.164 360.731 422.385ZM66.0571 92.4952C65.6881 91.943 65.319 91.3908 64.95 90.949C64.581 91.3908 64.3042 91.7221 63.9351 92.1639C64.3964 92.6057 64.8577 93.0474 65.319 93.3787C65.4113 93.4892 65.7803 92.8265 59.1377 73.6097C59.968 77.8065 60.8906 81.8928 61.6287 86.0896C61.9977 88.0775 60.7984 90.949 63.9351 90.949C63.5661 88.0775 64.6732 86.0896 65.8726 83.7703C66.4261 82.7763 64.3042 80.1257 64.0274 78.1378C63.9351 77.0334 65.1345 74.935 66.0571 74.6036C68.0868 73.8306 70.3932 73.8306 72.6075 73.6097C70.7623 71.953 68.8248 70.6277 67.1642 68.7502C65.9648 67.3145 65.5035 65.2161 64.4887 63.6699C64.3042 63.3386 63.0126 63.6699 62.459 64.0012C62.1822 64.1117 62.2745 65.2161 62.3667 65.8787C62.459 66.8727 62.7358 67.8667 62.9203 68.7502C60.3371 68.6398 58.7687 69.7442 66.0571 92.4952ZM281.388 462.365C281.019 461.812 280.65 461.26 280.281 460.818C279.912 461.26 279.636 461.591 279.266 462.033C279.728 462.475 280.189 462.917 280.65 463.248C280.743 463.248 281.112 462.696 271.978 464.353C273.454 463.138 274.192 462.033 275.115 461.812C281.942 459.714 284.617 451.652 289.599 446.903C290.338 446.24 290.061 443.921 290.245 442.375C288.954 442.485 287.57 442.264 286.37 442.816C283.326 444.142 280.281 445.798 281.481 450.989C281.573 451.21 280.189 452.314 280.189 452.204C277.514 448.67 277.329 450.437 276.683 453.861C276.499 454.965 272.716 454.855 270.871 455.959C269.672 456.622 267.919 459.051 268.195 459.604C268.934 461.371 270.502 462.696 281.388 462.365ZM249.652 470.095C252.696 466.893 250.851 464.573 248.544 466.561C245.684 468.991 243.101 468.66 240.241 469.102C239.411 469.212 238.211 470.316 238.119 471.2C238.027 472.194 238.58 473.74 239.319 474.403C240.057 475.176 241.81 474.844 242.179 475.618C245.961 483.238 245.592 483.017 249.559 478.6C252.604 475.286 252.142 472.967 249.652 470.095ZM133.683 14.3025C133.314 15.0756 132.76 15.7382 132.668 16.5113C132.483 21.8125 133.683 27.5555 128.885 31.0896C128.608 31.3105 128.608 32.6358 128.885 32.8567C130.823 34.9551 132.575 37.2743 134.882 38.5996C136.081 39.2623 138.941 40.0354 139.403 36.7221C139.495 35.7282 138.111 33.5193 137.188 33.4089C134.144 32.9671 135.066 30.3165 134.974 28.3286C134.882 24.2422 134.974 20.1559 134.882 16.0695C134.882 15.5173 134.144 14.8547 133.683 14.3025ZM395.328 270.969C391.822 272.736 388.685 273.178 388.132 274.835C387.393 276.933 388.685 280.025 389.239 282.676C389.423 283.449 389.7 284.222 390.069 284.995C390.069 285.106 390.623 284.995 390.807 284.885C393.39 283.559 396.527 277.043 396.066 273.841C395.881 272.515 395.42 271.3 395.328 270.969ZM385.825 390.467C382.688 393.78 380.105 395.768 378.537 398.419C377.706 399.855 380.105 402.836 378.075 404.935C379.09 405.266 380.751 406.15 381.028 405.818C382.873 403.278 384.257 400.407 386.01 397.756C386.655 396.873 388.593 395.879 388.501 395.768C387.947 394.112 387.024 392.676 385.825 390.467ZM86.9998 47.1037C86.9075 47.2141 85.7082 47.9872 84.6011 48.7603C85.3391 49.9751 86.0772 51.19 86.8153 52.4049C89.0295 56.1599 92.9043 51.5213 95.303 54.7241C95.5798 53.951 96.2256 53.0675 96.0411 52.4049C95.0263 47.6559 91.9817 46.6619 86.9998 47.1037ZM382.688 300.457C384.626 297.585 386.932 295.377 386.655 294.493C385.825 292.063 383.888 290.186 382.227 288.308C382.135 288.198 380.105 289.744 380.105 290.186C380.751 293.278 381.673 296.371 382.688 300.457ZM308.789 42.5755C311.096 41.1398 312.941 40.1458 314.694 38.7101C315.063 38.4892 314.971 36.6117 314.509 35.949C313.956 34.9551 312.387 33.6298 312.203 33.7402C310.45 35.5073 308.789 37.3848 307.313 39.4832C307.221 39.8145 308.051 41.0294 308.789 42.5755ZM188.761 28.2181C190.606 25.4571 192.359 23.0274 193.927 20.3768C194.02 20.1559 192.543 18.3888 191.621 17.6157C191.344 17.3948 190.237 17.8366 190.053 18.2784C189.13 20.5976 188.3 22.9169 187.746 25.3466C187.562 25.8988 188.207 26.7824 188.761 28.2181ZM103.975 63.0073C102.499 60.7984 101.484 59.3627 100.562 58.0374C99.8237 59.1418 98.5321 60.2462 98.4398 61.5715C98.1631 63.449 97.6095 66.5414 100.654 66.2101C101.669 65.9892 102.499 64.443 103.975 63.0073ZM321.429 480.146C320.137 478.71 319.491 477.495 318.753 477.385C317.831 477.274 316.17 478.158 316.078 478.71C315.985 480.808 316.447 482.907 316.723 485.005C316.723 485.116 317.369 485.226 317.462 485.005C318.661 483.459 319.86 482.023 321.429 480.146ZM183.594 11.2101C182.672 10.3266 181.842 9.00126 180.827 8.78037C179.535 8.55949 178.059 9.22214 176.675 9.44302C178.428 10.9892 180.181 12.5354 181.934 14.0816C182.303 13.4189 182.672 12.7563 183.594 11.2101ZM350.859 415.537C350.213 412.334 349.844 410.788 349.475 409.132C349.014 409.905 348.091 410.788 348.091 411.561C348.091 413.218 348.553 414.875 348.829 416.531C349.567 416.089 350.49 415.758 350.859 415.537ZM394.774 369.925C393.206 370.587 392.652 370.919 392.006 371.14C393.021 372.686 394.036 374.232 394.959 375.778C395.328 375.116 396.158 374.343 396.066 373.68C395.789 372.465 395.143 371.25 394.774 369.925ZM383.519 200.618C384.533 199.292 385.548 198.077 386.471 196.752C385.825 196.2 384.718 194.875 384.626 195.096C383.703 195.979 382.873 197.194 382.319 198.409C382.227 198.74 383.057 199.734 383.519 200.618ZM91.6127 72.2844C92.2585 71.2904 93.1811 70.186 93.6424 68.9711C93.8269 68.4189 93.2733 67.5354 92.9966 66.7623C91.705 67.9771 90.4133 69.192 89.1217 70.4069C89.7675 70.8486 90.3211 71.2904 91.6127 72.2844ZM88.3837 63.8908C89.8598 63.1177 90.5056 62.7864 91.1514 62.5655C90.1366 61.1298 89.0295 59.5836 88.0146 58.1478C87.6456 58.8105 86.9075 59.694 86.9998 60.2462C87.1843 61.4611 87.9224 62.6759 88.3837 63.8908ZM353.719 391.682C353.535 392.124 353.258 393.118 352.889 394.001C353.535 394.332 354.273 394.995 354.734 394.885C355.472 394.664 356.026 393.78 356.764 393.228C356.118 392.897 355.472 392.565 353.719 391.682ZM391.361 386.27C390.807 385.276 390.53 384.172 390.253 384.172C389.239 384.282 388.224 384.724 387.209 385.055C387.486 385.608 387.763 386.712 388.039 386.822C389.146 386.822 390.161 386.491 391.361 386.27ZM295.227 28.439C294.028 28.2181 292.921 27.8868 291.998 27.9972C291.721 27.9972 291.445 29.1017 291.168 29.7643C292.183 30.0956 293.198 30.5374 294.212 30.6478C294.305 30.5374 294.674 29.433 295.227 28.439ZM123.719 43.9008C123.165 42.9069 122.796 42.2442 122.427 41.4711C122.058 42.5755 121.504 43.68 121.32 44.8948C121.228 45.5575 121.966 46.2201 122.427 46.9932C122.888 45.9992 123.35 44.8948 123.719 43.9008ZM129.9 46.8828C130.084 45.3366 130.361 44.1217 130.269 43.0173C130.269 42.686 129.346 42.3547 128.793 42.0233C128.516 43.2382 128.147 44.453 128.055 45.5575C128.147 45.8888 129.07 46.3306 129.9 46.8828ZM399.572 299.684C401.325 298.8 401.97 298.469 402.616 298.138C401.97 297.585 401.324 296.702 400.586 296.481C400.033 296.26 399.387 297.033 398.741 297.365C399.018 298.248 399.387 299.242 399.572 299.684ZM389.331 252.194C388.777 251.2 388.408 250.537 388.039 249.764C387.67 250.869 387.117 251.973 386.932 253.188C386.84 253.851 387.578 254.513 388.039 255.286C388.501 254.182 388.962 253.077 389.331 252.194ZM391.822 237.726C390.899 237.063 390.346 236.18 389.792 236.18C388.777 236.29 387.855 236.953 386.932 237.505C387.486 237.947 388.132 238.831 388.685 238.831C389.608 238.72 390.623 238.168 391.822 237.726ZM373.37 230.326C372.817 229.333 372.448 228.67 372.079 227.897C371.71 229.001 371.156 230.106 370.971 231.32C370.879 231.983 371.617 232.646 372.079 233.419C372.448 232.314 372.909 231.21 373.37 230.326ZM380.474 226.571C380.105 226.351 379.275 226.019 378.537 225.577C378.26 226.351 377.706 227.234 377.799 227.786C377.983 228.67 378.721 229.333 379.275 230.216C379.551 229.443 379.736 228.67 380.474 226.571ZM369.772 216.3C369.588 216.742 369.311 217.736 368.942 218.62C369.588 218.951 370.326 219.614 370.787 219.503C371.525 219.282 372.079 218.399 372.817 217.847C372.171 217.515 371.525 217.184 369.772 216.3ZM368.48 186.26C367.927 185.266 367.65 184.162 367.373 184.162C366.359 184.272 365.344 184.714 364.329 185.045C364.606 185.598 364.882 186.702 365.159 186.812C366.266 186.702 367.281 186.481 368.48 186.26ZM369.034 103.098C368.296 100.999 368.019 100.226 367.742 99.453C367.281 100.226 366.543 100.999 366.266 101.883C366.082 102.545 366.728 103.318 367.004 104.092C367.927 103.76 368.665 103.318 369.034 103.098ZM209.058 8.22816C209.519 7.89684 210.073 7.56551 210.534 7.23419C210.257 6.90286 209.98 6.35065 209.796 6.35065C209.242 6.4611 208.781 6.90286 208.227 7.23419C208.504 7.56551 208.781 7.89684 209.058 8.22816ZM260.63 10.437C260.354 9.88479 260.077 9.22214 259.8 8.66993C259.523 9.00126 259.062 9.33258 259.062 9.55346C259.154 10.2161 259.523 10.7683 259.8 11.431C260.077 11.0996 260.261 10.7683 260.63 10.437ZM159.884 12.425C159.607 12.0936 159.33 11.7623 159.054 11.431C158.777 12.0936 158.5 12.6458 158.316 13.3085C158.316 13.5294 158.777 13.8607 159.054 14.192C159.33 13.5294 159.607 12.9772 159.884 12.425ZM166.711 15.9591C166.434 15.4069 166.158 14.7442 165.881 14.192C165.604 14.5233 165.143 14.8547 165.143 15.0756C165.235 15.7382 165.604 16.2904 165.881 16.9531C166.158 16.6217 166.434 16.2904 166.711 15.9591ZM171.324 17.8366C171.047 17.5053 170.77 17.1739 170.494 16.8426C170.217 17.5053 169.94 18.0575 169.756 18.7201C169.756 18.941 170.217 19.2723 170.494 19.6037C170.77 19.0515 171.047 18.3888 171.324 17.8366ZM278.897 17.8366C278.621 17.5053 278.344 17.1739 278.067 16.8426C277.79 17.5053 277.514 18.0575 277.329 18.7201C277.329 18.941 277.79 19.2723 278.067 19.6037C278.436 19.0515 278.713 18.3888 278.897 17.8366ZM277.329 28.8808C277.606 29.433 277.883 30.0956 278.159 30.6478C278.436 30.3165 278.897 29.9852 278.897 29.7643C278.805 29.1017 278.436 28.5494 278.159 27.8868C277.883 28.1077 277.606 28.439 277.329 28.8808ZM177.044 32.9671C177.505 32.6358 178.059 32.3045 178.52 31.9731C178.243 31.6418 177.967 31.0896 177.782 31.0896C177.229 31.2 176.767 31.6418 176.214 31.9731C176.491 32.3045 176.675 32.5253 177.044 32.9671ZM102.13 41.1398C102.407 40.8085 102.684 40.4771 102.96 40.1458C102.407 39.8145 101.946 39.4832 101.392 39.2623C101.208 39.2623 100.931 39.8145 100.654 40.1458C101.115 40.4771 101.669 40.8085 102.13 41.1398ZM110.618 52.9571C110.341 53.2884 110.064 53.6197 109.788 53.951C110.341 54.2824 110.802 54.6137 111.356 54.8346C111.541 54.8346 111.817 54.2824 112.094 53.951C111.541 53.5093 111.079 53.1779 110.618 52.9571ZM94.1037 58.9209C94.3805 59.4731 94.6572 60.1358 94.934 60.688C95.2108 60.3567 95.6721 60.0253 95.6721 59.8045C95.5798 59.1418 95.2108 58.5896 94.934 57.9269C94.6572 58.2583 94.3805 58.5896 94.1037 58.9209ZM57.4771 61.682C57.7538 62.2342 58.0306 62.8968 58.3074 63.449C58.5842 63.1177 59.0454 62.7864 59.0454 62.5655C58.9532 61.9028 58.5842 61.3506 58.3074 60.688C58.0306 61.0193 57.7538 61.3506 57.4771 61.682ZM322.443 76.1498C322.167 75.5976 321.89 74.935 321.613 74.3828C321.336 74.7141 320.875 75.0454 320.875 75.2663C320.967 75.9289 321.336 76.4812 321.613 77.1438C321.89 76.9229 322.167 76.5916 322.443 76.1498ZM366.635 119.995C366.912 120.327 367.189 120.658 367.466 120.989C367.742 120.327 368.019 119.774 368.204 119.112C368.204 118.891 367.742 118.559 367.466 118.228C367.189 118.891 366.912 119.443 366.635 119.995ZM351.689 121.431C351.228 121.762 350.675 122.094 350.213 122.425C350.49 122.756 350.767 123.308 350.951 123.308C351.505 123.198 351.966 122.756 352.52 122.425C352.335 122.094 352.058 121.762 351.689 121.431ZM359.716 127.505C359.993 128.057 360.269 128.72 360.546 129.272C360.823 128.941 361.284 128.61 361.284 128.389C361.192 127.726 360.823 127.174 360.546 126.511C360.269 126.843 360.085 127.063 359.716 127.505ZM391.822 209.674C392.099 210.226 392.375 210.889 392.652 211.441C392.929 211.11 393.39 210.778 393.39 210.557C393.298 209.895 392.929 209.343 392.652 208.68C392.375 209.011 392.099 209.343 391.822 209.674ZM397.173 211.441C396.896 211.772 396.435 212.104 396.435 212.324C396.527 212.987 396.896 213.539 397.173 214.202C397.45 213.871 397.911 213.539 397.911 213.318C397.819 212.656 397.45 211.993 397.173 211.441ZM374.016 241.15C374.477 240.818 375.031 240.487 375.492 240.156C375.215 239.824 374.939 239.272 374.754 239.272C374.2 239.383 373.739 239.824 373.186 240.156C373.462 240.487 373.647 240.818 374.016 241.15ZM399.848 244.684C399.387 245.015 398.834 245.347 398.372 245.678C398.649 246.009 398.926 246.561 399.11 246.561C399.664 246.451 400.125 246.009 400.679 245.678C400.402 245.347 400.125 245.126 399.848 244.684ZM8.6723 247.997C8.39552 247.666 8.11875 247.335 7.84197 247.003C7.5652 247.666 7.28842 248.218 7.10391 248.881C7.10391 249.102 7.5652 249.433 7.84197 249.764C8.11875 249.212 8.39552 248.549 8.6723 247.997ZM399.848 265.889C400.125 265.557 400.402 265.226 400.679 264.895C400.125 264.563 399.664 264.232 399.11 264.011C398.926 264.011 398.649 264.563 398.372 264.895C398.834 265.226 399.387 265.557 399.848 265.889ZM202.231 290.517C202.692 290.186 203.245 289.855 203.707 289.523C203.43 289.192 203.153 288.64 202.969 288.64C202.415 288.75 201.954 289.192 201.4 289.523C201.677 289.855 201.862 290.186 202.231 290.517ZM394.128 328.288C394.405 328.62 394.682 328.951 394.959 329.282C395.235 328.62 395.512 328.067 395.697 327.405C395.697 327.184 395.235 326.853 394.959 326.521C394.682 327.073 394.405 327.736 394.128 328.288ZM367.742 350.818C368.019 350.487 368.296 350.156 368.573 349.824C368.019 349.493 367.558 349.162 367.004 348.941C366.82 348.941 366.543 349.493 366.266 349.824C366.82 350.156 367.281 350.487 367.742 350.818ZM356.764 361.2C356.487 360.648 356.21 359.985 355.933 359.433C355.657 359.764 355.195 360.096 355.195 360.316C355.288 360.979 355.657 361.531 355.933 362.194C356.21 361.863 356.487 361.531 356.764 361.2ZM350.306 379.975C350.029 379.644 349.752 379.091 349.567 379.091C349.014 379.202 348.553 379.644 347.999 379.975C348.276 380.306 348.553 380.859 348.737 380.859C349.291 380.638 349.752 380.196 350.306 379.975ZM358.609 384.503C358.148 384.834 357.594 385.166 357.133 385.497C357.409 385.828 357.686 386.381 357.871 386.381C358.424 386.27 358.886 385.828 359.439 385.497C359.162 385.166 358.886 384.834 358.609 384.503ZM351.044 389.142C351.505 388.81 352.058 388.479 352.52 388.148C352.243 387.816 351.966 387.264 351.782 387.264C351.228 387.375 350.767 387.816 350.213 388.148C350.49 388.479 350.767 388.81 351.044 389.142ZM363.683 413.218C363.406 412.666 363.129 412.003 362.853 411.451C362.576 411.782 362.115 412.114 362.115 412.334C362.207 412.997 362.576 413.549 362.853 414.212C363.129 413.881 363.406 413.549 363.683 413.218ZM284.156 459.051C284.433 459.604 284.71 460.266 284.987 460.818C285.263 460.487 285.725 460.156 285.725 459.935C285.632 459.272 285.263 458.72 284.987 458.057C284.71 458.389 284.525 458.61 284.156 459.051ZM260.63 461.702C260.354 461.371 260.077 461.039 259.8 460.708C259.523 461.371 259.246 461.923 259.062 462.585C259.062 462.806 259.523 463.138 259.8 463.469C260.077 462.917 260.354 462.365 260.63 461.702ZM257.493 466.23C257.217 466.561 256.755 466.893 256.755 467.114C256.848 467.776 257.217 468.328 257.493 468.991C257.77 468.66 258.232 468.328 258.232 468.108C258.139 467.445 257.77 466.893 257.493 466.23ZM315.616 473.519C315.34 472.967 315.063 472.304 314.786 471.752C314.509 472.083 314.048 472.415 314.048 472.636C314.14 473.298 314.509 473.851 314.786 474.513C315.063 474.182 315.247 473.851 315.616 473.519ZM241.44 485.447C241.164 485.778 240.702 486.11 240.702 486.33C240.795 486.993 241.164 487.545 241.44 488.208C241.717 487.877 242.179 487.545 242.179 487.324C242.086 486.662 241.717 485.999 241.44 485.447Z" fill="#151B11"/>
</svg>
